<svg xmlns="http://www.w3.org/2000/svg" viewBox="-52 -44 104 84" width="208" height="168">
    <g stroke="#0f1316" stroke-width="2.6" stroke-linecap="round" fill="none">
      <path d="M13 -7 Q4 -16 -4 -22"/><path d="M20 -8 Q19 -20 15 -30"/><path d="M27 -7 Q34 -17 42 -21"/>
    </g>
    <g fill="#0f1316">
      <path d="M-18 -3 Q2 -10 22 -8 Q35 -7 35 2 Q35 11 22 12 Q2 15 -18 9 Z"/>
      <path d="M-18 -5 Q-36 -18 -44 -6 Q-46 11 -32 19 Q-22 23 -18 13 Z"/>
      <path d="M-6 13 Q-9 24 0 25 Q6 22 3 13 Z"/>
      <path d="M16 12 Q14 23 23 23 Q28 20 24 11 Z"/>
      <circle cx="-4" cy="-22" r="4.6"/><circle cx="-9" cy="-27" r="3.4"/><circle cx="1" cy="-28" r="3.6"/>
      <circle cx="15" cy="-30" r="4.6"/><circle cx="10" cy="-36" r="3.4"/><circle cx="20" cy="-36" r="3.6"/>
      <circle cx="42" cy="-21" r="4.6"/><circle cx="43" cy="-29" r="3.4"/><circle cx="48" cy="-16" r="3.2"/>
    </g>
    <g fill="#e88fb0" opacity="0.8"><circle cx="-4" cy="-24" r="1.8"/><circle cx="15" cy="-32" r="1.8"/><circle cx="43" cy="-23" r="1.8"/></g>
    <g fill="#e88fb0" opacity="0.12"><circle cx="-4" cy="-25" r="9"/><circle cx="15" cy="-33" r="9"/><circle cx="43" cy="-24" r="9"/></g>
    <circle cx="30" cy="0" r="1.9" fill="#e88fb0"/>
</svg>
